<?xml version="1.0" encoding="utf-8"?>
<svg data-bbox="6.14 15.32 537.775 126.228" xmlns="http://www.w3.org/2000/svg" viewBox="1.282 5.605 550.811 79.909" height="152" width="550" data-type="color">
  <g transform="matrix(1, 0, 0, 1, 1.439353, -5.441071)">
    <path fill="#2E3079" d="M6.14 85V15.32h24.35q10.845 0 18.622 4.196 7.879 4.093 12.074 11.971 4.297 7.776 4.297 18.725 0 11.05-4.297 18.826-4.195 7.775-12.074 11.87Q41.234 85 30.39 85zm14.938-8.8-5.935-5.627h14.223q6.24 0 10.845-2.046 4.707-2.15 7.265-6.651 2.66-4.502 2.66-11.664 0-7.06-2.558-11.563-2.557-4.502-7.264-6.65-4.605-2.251-10.846-2.251H14.427l6.65-4.4zm62.94-41.234 3.888 13.813V85H72.967V34.966zm.614 22.1-2.558-1.125V44.38l.92-1.228q1.229-1.74 3.48-3.99 2.353-2.25 5.422-3.786 3.172-1.637 6.446-1.637 1.638 0 2.968.205 1.33.204 2.148.716v13.608h-3.376q-6.549 0-10.334 2.15-3.685 2.045-5.116 6.65m27.416 28.957a9.66 9.66 0 0 1-5.116-1.432 11.2 11.2 0 0 1-3.786-3.786 9.66 9.66 0 0 1-1.433-5.116q0-2.865 1.433-5.218a10.3 10.3 0 0 1 3.786-3.684 9.66 9.66 0 0 1 5.116-1.432q2.967 0 5.32 1.432a9.56 9.56 0 0 1 3.684 3.684q1.432 2.353 1.432 5.218a9.66 9.66 0 0 1-1.432 5.116 10.3 10.3 0 0 1-3.684 3.786q-2.353 1.432-5.32 1.432M132.639 85V15.32h24.352q10.846 0 18.622 4.196 7.879 4.093 12.074 11.971 4.297 7.776 4.297 18.725 0 11.05-4.297 18.826-4.195 7.775-12.074 11.87Q167.734 85 156.889 85zm14.939-8.8-5.935-5.627h14.223q6.241 0 10.846-2.046 4.706-2.15 7.264-6.651 2.661-4.502 2.661-11.664 0-7.06-2.558-11.563-2.559-4.502-7.265-6.65-4.605-2.251-10.846-2.251h-15.041l6.651-4.4zm74.59 9.72q-7.47 0-13.199-3.171-5.628-3.172-8.8-9.004-3.069-5.832-3.069-13.71 0-7.777 3.069-13.712 3.172-5.934 8.8-9.208 5.73-3.377 13.199-3.377 7.674 0 13.301 3.479 5.628 3.48 8.697 9.413 3.07 5.832 3.07 13.2 0 1.33-.102 2.558a36 36 0 0 1-.205 1.944h-38.165V53.69h26.705l-1.739 4.4q0-5.627-2.865-9.209-2.763-3.58-8.595-3.58-5.218 0-8.39 3.171-3.07 3.172-3.07 8.39v5.628q0 5.628 3.172 8.8 3.274 3.069 9.004 3.069 4.809 0 7.572-1.944a17.9 17.9 0 0 0 4.809-4.81l10.13 5.628q-3.275 6.038-9.209 9.414-5.935 3.273-14.12 3.274m55.884.308q-7.776 0-13.71-3.274-5.935-3.377-9.209-9.311t-3.274-13.609q0-7.776 3.274-13.71 3.274-5.936 9.209-9.21 5.934-3.375 13.71-3.376 7.879 0 13.814 3.377 5.934 3.274 9.208 9.208 3.377 5.935 3.377 13.711 0 7.674-3.377 13.609-3.274 5.935-9.208 9.31-5.935 3.275-13.814 3.275m0-14.53q5.014 0 8.084-3.171 3.172-3.274 3.172-8.493 0-5.32-3.172-8.595-3.07-3.273-8.084-3.274-4.809 0-7.98 3.274-3.07 3.172-3.07 8.493t3.07 8.595q3.171 3.171 7.98 3.171m53.381 14.53q-6.753 0-11.971-3.274-5.218-3.377-8.185-9.311-2.865-6.037-2.865-13.711t2.967-13.609 8.185-9.208q5.219-3.377 11.972-3.377 6.651 0 11.46 3.07 4.911 2.967 7.571 8.8 2.763 5.83 2.763 14.324 0 8.083-2.763 14.017-2.763 5.833-7.674 9.107-4.911 3.172-11.46 3.172m2.865-14.018q4.605 0 7.572-3.376 3.07-3.48 3.07-8.902 0-5.32-3.07-8.697-2.967-3.48-7.572-3.48-4.604 0-7.674 3.48-2.967 3.376-2.967 8.697 0 5.422 2.967 8.902 3.07 3.376 7.674 3.376M348.009 85l-3.786-12.79h.921V48.881h-.921v-33.56h14.939V85zm32.874-50.034 3.888 13.813V85h-14.938V34.966zm.614 22.1-2.558-1.125V44.38l.921-1.228q1.228-1.74 3.479-3.99 2.353-2.25 5.423-3.786 3.171-1.637 6.446-1.637 1.637 0 2.967.205 1.33.204 2.149.716v13.608h-3.377q-6.548 0-10.334 2.15-3.684 2.045-5.116 6.65m38.654 29.264q-5.424 0-9.618-2.046-4.094-2.148-6.344-5.935t-2.251-8.8q0-5.32 2.455-9.003 2.456-3.786 6.549-5.832 4.195-2.047 9.311-2.047 7.469 0 12.074 3.377 4.604 3.375 6.139 9.72l-6.446-1.126V52.974q0-2.763-1.944-4.809t-6.242-2.046q-2.762 0-6.344.716-3.58.614-7.367 2.456l-4.399-10.642q4.502-2.25 9.618-3.58a43 43 0 0 1 10.641-1.33q6.957 0 11.664 2.455t6.958 6.957q2.353 4.502 2.353 10.437V85h-12.176l-2.967-9.72 6.651-2.047q-1.637 6.14-6.242 9.618-4.604 3.48-12.073 3.48m4.604-10.641q3.377 0 5.321-1.74 2.046-1.74 2.046-4.4 0-2.865-2.046-4.501-1.944-1.638-5.321-1.637t-5.321 1.637-1.944 4.502q0 2.66 1.944 4.4t5.321 1.739m62.907-41.95q5.014 0 8.186 1.739 3.171 1.636 4.809 4.604 1.739 2.968 2.251 6.753.614 3.684.614 7.674V85h-14.939V55.327q0-4.296-1.535-5.627-1.534-1.433-4.093-1.433-2.148 0-4.502.921-2.25.819-4.399 2.354a20.5 20.5 0 0 0-3.786 3.478l-2.66-7.571h4.195V85h-14.939V34.966h11.05l3.07 9.925-5.116-.41a38.4 38.4 0 0 1 6.037-5.422 29.3 29.3 0 0 1 7.367-3.889q3.99-1.431 8.39-1.432m47.965 52.08q-8.287 0-13.096-4.093-4.707-4.093-4.707-13.404V35.58l-.205-.614 3.07-12.074h12.073v42.156q0 3.478 1.638 5.013 1.636 1.433 4.297 1.433 1.534 0 2.865-.205 1.432-.307 2.353-.614v14.018a28 28 0 0 1-3.786.819q-1.944.306-4.502.307m-25.579-37.142V34.966h33.867v13.71z" data-color="1"/>
  </g>
</svg>